<svg width="197" height="41" viewBox="0 0 197 41" fill="none" xmlns="http://www.w3.org/2000/svg">
<circle cx="20.241" cy="20.7585" r="20.241" fill="white"/>
<circle cx="72.2878" cy="20.7585" r="20.241" fill="white"/>
<circle cx="124.337" cy="20.7585" r="20.241" fill="white"/>
<circle cx="176.385" cy="20.7585" r="20.241" fill="white"/>
<g clip-path="url(#clip0_2084_2845)">
<path d="M80.4531 13.5399C79.7201 14.057 78.9085 14.4524 78.0496 14.7111C77.5886 14.181 76.9759 13.8053 76.2945 13.6348C75.613 13.4643 74.8956 13.5072 74.2393 13.7577C73.583 14.0082 73.0194 14.4542 72.6249 15.0354C72.2303 15.6166 72.0238 16.305 72.0332 17.0074V17.7728C70.688 17.8077 69.3551 17.5094 68.1532 16.9044C66.9512 16.2994 65.9175 15.4066 65.1442 14.3054C65.1442 14.3054 62.0824 21.1944 68.9714 24.2562C67.395 25.3263 65.5171 25.8628 63.6133 25.7871C70.5023 29.6143 78.9222 25.7871 78.9222 16.9844C78.9215 16.7712 78.901 16.5585 78.861 16.3491C79.6422 15.5787 80.1935 14.606 80.4531 13.5399Z" fill="url(#paint0_linear_2084_2845)"/>
</g>
<g clip-path="url(#clip1_2084_2845)">
<path fill-rule="evenodd" clip-rule="evenodd" d="M132.557 15.0762C132.334 14.4999 131.993 13.9765 131.556 13.5396C131.119 13.1027 130.596 12.762 130.02 12.5392C129.468 12.3246 128.837 12.1781 127.914 12.1358C126.991 12.0936 126.693 12.085 124.337 12.085C121.981 12.085 121.686 12.0951 120.761 12.1358C119.835 12.1765 119.207 12.3246 118.655 12.5392C118.079 12.7618 117.555 13.1025 117.118 13.5394C116.682 13.9763 116.341 14.4997 116.118 15.0762C115.904 15.6281 115.757 16.2584 115.715 17.1817C115.673 18.105 115.664 18.4026 115.664 20.7584C115.664 23.1142 115.674 23.4098 115.715 24.3351C115.756 25.2604 115.904 25.8887 116.118 26.4406C116.341 27.0169 116.682 27.5403 117.119 27.9772C117.556 28.4141 118.079 28.7548 118.655 28.9775C119.207 29.1922 119.837 29.3387 120.761 29.3809C121.684 29.4232 121.982 29.4318 124.337 29.4318C126.692 29.4318 126.989 29.4216 127.914 29.3809C128.84 29.3402 129.468 29.1922 130.02 28.9775C130.596 28.7546 131.119 28.4138 131.556 27.9769C131.993 27.54 132.334 27.0168 132.557 26.4406C132.771 25.8887 132.918 25.2584 132.96 24.3351C133.002 23.4118 133.011 23.1142 133.011 20.7584C133.011 18.4026 133.001 18.107 132.96 17.1817C132.919 16.2563 132.771 15.6281 132.557 15.0762ZM124.337 25.2126C123.456 25.2126 122.595 24.9513 121.862 24.4618C121.129 23.9723 120.558 23.2765 120.221 22.4625C119.884 21.6485 119.796 20.7528 119.968 19.8886C120.14 19.0245 120.564 18.2307 121.187 17.6077C121.81 16.9847 122.604 16.5605 123.468 16.3887C124.332 16.2168 125.228 16.3051 126.042 16.6424C126.856 16.9796 127.552 17.5507 128.041 18.2833C128.531 19.016 128.792 19.8773 128.792 20.7584C128.792 21.3434 128.676 21.9226 128.453 22.4631C128.229 23.0035 127.901 23.4946 127.487 23.9082C127.073 24.3218 126.582 24.6499 126.042 24.8737C125.501 25.0975 124.922 25.2127 124.337 25.2126ZM128.966 17.169C128.76 17.169 128.559 17.1079 128.388 16.9935C128.216 16.879 128.083 16.7164 128.004 16.5261C127.925 16.3359 127.905 16.1265 127.945 15.9245C127.985 15.7225 128.084 15.5369 128.23 15.3913C128.375 15.2457 128.561 15.1465 128.763 15.1063C128.965 15.0662 129.174 15.0868 129.365 15.1656C129.555 15.2444 129.718 15.3779 129.832 15.5491C129.946 15.7204 130.008 15.9217 130.008 16.1276C130.008 16.4032 129.898 16.6675 129.704 16.8627C129.509 17.0579 129.245 17.168 128.97 17.169H128.966ZM127.227 20.7584C127.228 21.3304 127.058 21.8896 126.74 22.3652C126.423 22.8409 125.971 23.2116 125.442 23.4306C124.914 23.6496 124.333 23.7069 123.772 23.5954C123.211 23.4838 122.695 23.2084 122.291 22.804C121.886 22.3996 121.611 21.8843 121.499 21.3233C121.387 20.7623 121.445 20.1808 121.664 19.6523C121.882 19.1238 122.253 18.6721 122.729 18.3543C123.204 18.0365 123.763 17.8669 124.335 17.8669C124.715 17.8666 125.092 17.9412 125.443 18.0864C125.794 18.2316 126.113 18.4446 126.381 18.7131C126.65 18.9816 126.863 19.3005 127.009 19.6514C127.154 20.0023 127.229 20.3785 127.229 20.7584H127.227Z" fill="url(#paint1_linear_2084_2845)"/>
</g>
<g clip-path="url(#clip2_2084_2845)">
<path fill-rule="evenodd" clip-rule="evenodd" d="M22.0665 21.8605H24.6016L25.0835 18.7153H22.0665V16.6744C22.0665 15.8147 22.4875 14.9749 23.8395 14.9749H25.2117V12.2974C25.2117 12.2974 23.9665 12.085 22.7761 12.085C20.292 12.085 18.6671 13.5904 18.6671 16.318V18.7153H15.9043V21.8605H18.6671V29.3019C19.7934 29.4785 20.9402 29.4785 22.0665 29.3019V21.8605Z" fill="url(#paint2_linear_2084_2845)"/>
</g>
<g clip-path="url(#clip3_2084_2845)">
<path fill-rule="evenodd" clip-rule="evenodd" d="M187.536 13.3796C186.595 12.3967 185.546 12.3923 185.063 12.3345C181.612 12.085 176.434 12.085 176.434 12.085H176.423C176.423 12.085 171.246 12.085 167.794 12.3345C167.312 12.3923 166.26 12.3967 165.322 13.3796C164.582 14.1281 164.342 15.8278 164.342 15.8278C164.189 17.1532 164.106 18.4859 164.096 19.8201V21.6912C164.106 23.0254 164.189 24.3581 164.342 25.6836C164.342 25.6836 164.582 27.3832 165.322 28.1318C166.263 29.1147 167.492 29.0836 168.042 29.1863C170.015 29.3758 176.432 29.4343 176.432 29.4343C176.432 29.4343 181.616 29.4264 185.067 29.1769C185.55 29.119 186.601 29.1147 187.539 28.1318C188.278 27.3832 188.519 25.6836 188.519 25.6836C188.673 24.3581 188.755 23.0254 188.766 21.6912V19.8201C188.755 18.4859 188.673 17.1532 188.519 15.8278C188.519 15.8278 188.275 14.1281 187.536 13.3796ZM173.881 23.9593V17.0284L180.546 20.5058L173.881 23.9593Z" fill="url(#paint3_linear_2084_2845)"/>
</g>
<defs>
<linearGradient id="paint0_linear_2084_2845" x1="63.6133" y1="20.3997" x2="80.4531" y2="20.3997" gradientUnits="userSpaceOnUse">
<stop stop-color="#1B7F75"/>
<stop offset="1" stop-color="#4EA291"/>
</linearGradient>
<linearGradient id="paint1_linear_2084_2845" x1="115.664" y1="20.7584" x2="133.011" y2="20.7584" gradientUnits="userSpaceOnUse">
<stop stop-color="#1B7F75"/>
<stop offset="1" stop-color="#4EA291"/>
</linearGradient>
<linearGradient id="paint2_linear_2084_2845" x1="15.9043" y1="20.7597" x2="25.2117" y2="20.7597" gradientUnits="userSpaceOnUse">
<stop stop-color="#1B7F75"/>
<stop offset="1" stop-color="#4EA291"/>
</linearGradient>
<linearGradient id="paint3_linear_2084_2845" x1="164.096" y1="20.7597" x2="188.766" y2="20.7597" gradientUnits="userSpaceOnUse">
<stop stop-color="#1B7F75"/>
<stop offset="1" stop-color="#4EA291"/>
</linearGradient>
<clipPath id="clip0_2084_2845">
<rect width="17.3793" height="17.3494" fill="white" transform="translate(63.6133 12.085)"/>
</clipPath>
<clipPath id="clip1_2084_2845">
<rect width="17.3494" height="17.3494" fill="white" transform="translate(115.662 12.085)"/>
</clipPath>
<clipPath id="clip2_2084_2845">
<rect width="9.30742" height="17.3494" fill="white" transform="translate(15.9043 12.085)"/>
</clipPath>
<clipPath id="clip3_2084_2845">
<rect width="24.6665" height="17.3494" fill="white" transform="translate(164.096 12.085)"/>
</clipPath>
</defs>
</svg>
