<svg width="31" height="31" viewBox="0 0 31 31" fill="none" xmlns="http://www.w3.org/2000/svg">
<rect width="30.1149" height="30.1149" rx="15.0575" fill="white"/>
<path d="M18.8204 8.65674H11.2917C9.03309 8.65674 7.52734 9.78605 7.52734 12.4211V17.6912C7.52734 20.3263 9.03309 21.4556 11.2917 21.4556H18.8204C21.0791 21.4556 22.5848 20.3263 22.5848 17.6912V12.4211C22.5848 9.78605 21.0791 8.65674 18.8204 8.65674ZM19.1743 13.2417L16.8178 15.1239C16.3209 15.5229 15.6885 15.7187 15.0561 15.7187C14.4237 15.7187 13.7837 15.5229 13.2944 15.1239L10.9379 13.2417C10.6969 13.046 10.6593 12.6846 10.8475 12.4437C11.0433 12.2028 11.3971 12.1576 11.638 12.3533L13.9945 14.2355C14.5667 14.6948 15.5379 14.6948 16.1101 14.2355L18.4666 12.3533C18.7075 12.1576 19.0689 12.1952 19.2571 12.4437C19.4529 12.6846 19.4152 13.046 19.1743 13.2417Z" fill="url(#paint0_linear_37_390)"/>
<defs>
<linearGradient id="paint0_linear_37_390" x1="7.52734" y1="15.0562" x2="22.5848" y2="15.0562" gradientUnits="userSpaceOnUse">
<stop stop-color="#1B7F75"/>
<stop offset="1" stop-color="#4EA291"/>
</linearGradient>
</defs>
</svg>
