<svg width="61" height="71" viewBox="0 0 61 71" fill="none" xmlns="http://www.w3.org/2000/svg">
<g filter="url(#filter0_d_2084_527)">
<circle cx="27" cy="24" r="24" fill="white"/>
<circle cx="27" cy="24" r="23.6" stroke="black" stroke-opacity="0.1" stroke-width="0.8"/>
</g>
<path d="M34.1992 24.8C34.641 24.8 34.9992 24.4418 34.9992 24C34.9992 23.5582 34.641 23.2 34.1992 23.2L34.1992 24.8ZM19.2335 23.4343C18.9211 23.7467 18.9211 24.2533 19.2335 24.5657L24.3247 29.6569C24.6371 29.9693 25.1437 29.9693 25.4561 29.6569C25.7685 29.3444 25.7685 28.8379 25.4561 28.5255L20.9306 24L25.4561 19.4745C25.7685 19.1621 25.7685 18.6556 25.4561 18.3431C25.1437 18.0307 24.6371 18.0307 24.3247 18.3431L19.2335 23.4343ZM34.1992 23.2L19.7992 23.2L19.7992 24.8L34.1992 24.8L34.1992 23.2Z" fill="#2B8A7E"/>
<defs>
<filter id="filter0_d_2084_527" x="0.36" y="0" width="59.68" height="70.64" filterUnits="userSpaceOnUse" color-interpolation-filters="sRGB">
<feFlood flood-opacity="0" result="BackgroundImageFix"/>
<feColorMatrix in="SourceAlpha" type="matrix" values="0 0 0 0 0 0 0 0 0 0 0 0 0 0 0 0 0 0 127 0" result="hardAlpha"/>
<feOffset dx="3.2" dy="16.8"/>
<feGaussianBlur stdDeviation="2.92"/>
<feComposite in2="hardAlpha" operator="out"/>
<feColorMatrix type="matrix" values="0 0 0 0 0 0 0 0 0 0 0 0 0 0 0 0 0 0 0.04 0"/>
<feBlend mode="normal" in2="BackgroundImageFix" result="effect1_dropShadow_2084_527"/>
<feBlend mode="normal" in="SourceGraphic" in2="effect1_dropShadow_2084_527" result="shape"/>
</filter>
</defs>
</svg>
