<svg width="31" height="31" viewBox="0 0 31 31" fill="none" xmlns="http://www.w3.org/2000/svg">
<rect width="30.1149" height="30.1149" rx="15.0575" fill="white"/>
<g clip-path="url(#clip0_2084_2829)">
<path d="M21.5503 12.385C20.7598 8.90667 17.7257 7.3407 15.0605 7.3407C15.0605 7.3407 15.0605 7.3407 15.053 7.3407C12.3953 7.3407 9.35372 8.89915 8.5632 12.3774C7.68234 16.2622 10.0614 19.5523 12.2146 21.6227C13.0127 22.3906 14.0366 22.7746 15.0605 22.7746C16.0844 22.7746 17.1083 22.3906 17.8988 21.6227C20.0521 19.5523 22.4311 16.2698 21.5503 12.385ZM15.0605 16.1568C13.7505 16.1568 12.6889 15.0953 12.6889 13.7853C12.6889 12.4753 13.7505 11.4137 15.0605 11.4137C16.3705 11.4137 17.4321 12.4753 17.4321 13.7853C17.4321 15.0953 16.3705 16.1568 15.0605 16.1568Z" fill="url(#paint0_linear_2084_2829)"/>
</g>
<defs>
<linearGradient id="paint0_linear_2084_2829" x1="8.375" y1="15.0577" x2="21.7385" y2="15.0577" gradientUnits="userSpaceOnUse">
<stop stop-color="#1B7F75"/>
<stop offset="1" stop-color="#4EA291"/>
</linearGradient>
<clipPath id="clip0_2084_2829">
<rect width="18.069" height="18.069" fill="white" transform="translate(6.02344 6.02264)"/>
</clipPath>
</defs>
</svg>
