<svg width="48" height="48" viewBox="0 0 48 48" fill="none" xmlns="http://www.w3.org/2000/svg">
<path d="M16.3758 30.3038C15.8781 30.8015 15.868 31.6851 16.3859 32.203C16.9141 32.721 17.7977 32.7108 18.2852 32.2233L24.2977 26.2108L30.3 32.2132C30.8078 32.721 31.6813 32.721 32.1992 32.203C32.7172 31.6749 32.7172 30.8116 32.2094 30.3038L26.207 24.3015L32.2094 18.289C32.7172 17.7812 32.7273 16.9077 32.1992 16.3898C31.6813 15.8718 30.8078 15.8718 30.3 16.3796L24.2977 22.3819L18.2852 16.3796C17.7977 15.8819 16.9039 15.8616 16.3859 16.3898C15.868 16.9077 15.8781 17.8015 16.3758 18.289L22.3781 24.3015L16.3758 30.3038Z" fill="#1B7F75"/>
</svg>
