<svg width="31" height="31" viewBox="0 0 31 31" fill="none" xmlns="http://www.w3.org/2000/svg">
<rect width="30.1149" height="30.1149" rx="15.0575" fill="white"/>
<path d="M14.3408 17.2792L12.948 18.672C12.6544 18.9656 12.1876 18.9656 11.8865 18.6795C11.8037 18.5967 11.7208 18.5214 11.638 18.4386C10.8626 17.6556 10.1624 16.835 9.53752 15.9767C8.92016 15.1184 8.42326 14.2602 8.06188 13.4094C7.70803 12.5511 7.52734 11.7305 7.52734 10.9475C7.52734 10.4356 7.61769 9.9462 7.79838 9.49448C7.97907 9.03523 8.26516 8.61362 8.66418 8.23718C9.14602 7.76287 9.67303 7.52948 10.2302 7.52948C10.441 7.52948 10.6518 7.57465 10.84 7.665C11.0357 7.75534 11.2089 7.89086 11.3444 8.08661L13.0911 10.5485C13.2266 10.7367 13.3245 10.9099 13.3922 11.0755C13.46 11.2336 13.4976 11.3917 13.4976 11.5348C13.4976 11.7155 13.4449 11.8961 13.3395 12.0693C13.2417 12.2425 13.0986 12.4232 12.9179 12.6038L12.3457 13.1986C12.2629 13.2814 12.2253 13.3793 12.2253 13.4998C12.2253 13.56 12.2328 13.6127 12.2479 13.6729C12.2704 13.7332 12.293 13.7783 12.3081 13.8235C12.4436 14.072 12.677 14.3957 13.0083 14.7872C13.3471 15.1787 13.7084 15.5777 14.0999 15.9767C14.1752 16.052 14.258 16.1273 14.3333 16.2026C14.6345 16.4962 14.642 16.978 14.3408 17.2792Z" fill="url(#paint0_linear_2084_2812)"/>
<path d="M22.563 19.8233C22.563 20.0341 22.5254 20.2524 22.4501 20.4632C22.4275 20.5234 22.4049 20.5837 22.3748 20.6439C22.2468 20.9149 22.0812 21.1709 21.8629 21.4118C21.494 21.8184 21.0874 22.112 20.6282 22.3002C20.6206 22.3002 20.6131 22.3078 20.6056 22.3078C20.1614 22.4884 19.6795 22.5863 19.1601 22.5863C18.3921 22.5863 17.5715 22.4056 16.7057 22.0367C15.8399 21.6678 14.9741 21.1709 14.1158 20.546C13.8222 20.3277 13.5286 20.1094 13.25 19.876L15.7119 17.4141C15.9227 17.5722 16.1109 17.6926 16.269 17.7755C16.3067 17.7905 16.3518 17.8131 16.4045 17.8357C16.4648 17.8583 16.525 17.8658 16.5928 17.8658C16.7207 17.8658 16.8186 17.8206 16.9014 17.7378L17.4736 17.1732C17.6618 16.9849 17.8425 16.8419 18.0157 16.7515C18.1888 16.6461 18.362 16.5934 18.5502 16.5934C18.6933 16.5934 18.8438 16.6236 19.0095 16.6913C19.1751 16.7591 19.3483 16.857 19.5365 16.9849L22.0285 18.7542C22.2243 18.8897 22.3598 19.0478 22.4426 19.236C22.5179 19.4242 22.563 19.6125 22.563 19.8233Z" fill="url(#paint1_linear_2084_2812)"/>
<defs>
<linearGradient id="paint0_linear_2084_2812" x1="7.52734" y1="13.2113" x2="14.563" y2="13.2113" gradientUnits="userSpaceOnUse">
<stop stop-color="#1B7F75"/>
<stop offset="1" stop-color="#4EA291"/>
</linearGradient>
<linearGradient id="paint1_linear_2084_2812" x1="13.25" y1="19.5899" x2="22.563" y2="19.5899" gradientUnits="userSpaceOnUse">
<stop stop-color="#1B7F75"/>
<stop offset="1" stop-color="#4EA291"/>
</linearGradient>
</defs>
</svg>
