<svg width="143" height="20" viewBox="0 0 143 20" fill="none" xmlns="http://www.w3.org/2000/svg">
<path d="M0.52 12.907V12.01L5.083 5.692H6.5V11.88H7.8V12.907H6.5V15H5.33V12.907H0.52ZM5.382 6.927L1.885 11.88H5.382V6.927ZM9.55378 15.078C9.32845 15.078 9.13778 15 8.98178 14.844C8.82578 14.688 8.74778 14.4973 8.74778 14.272C8.74778 14.0467 8.82578 13.856 8.98178 13.7C9.13778 13.544 9.32845 13.466 9.55378 13.466C9.77045 13.466 9.95245 13.544 10.0998 13.7C10.2558 13.856 10.3338 14.0467 10.3338 14.272C10.3338 14.4973 10.2558 14.688 10.0998 14.844C9.95245 15 9.77045 15.078 9.55378 15.078ZM17.4963 6.524L13.8823 15H12.6863L16.3523 6.641H11.3343V5.627H17.4963V6.524Z" fill="#7C7C7C"/>
<path d="M120.043 17.418C119.211 16.6033 118.561 15.5677 118.093 14.311C117.634 13.0543 117.404 11.698 117.404 10.242C117.404 8.75133 117.647 7.36033 118.132 6.069C118.626 4.769 119.328 3.69867 120.238 2.858H121.473V2.975C120.502 3.885 119.77 4.98133 119.276 6.264C118.791 7.538 118.548 8.864 118.548 10.242C118.548 11.5853 118.778 12.868 119.237 14.09C119.705 15.312 120.385 16.3823 121.278 17.301V17.418H120.043ZM122.566 14.051C123.667 13.167 124.529 12.4433 125.153 11.88C125.777 11.308 126.302 10.7143 126.726 10.099C127.16 9.475 127.376 8.864 127.376 8.266C127.376 7.70267 127.238 7.26067 126.96 6.94C126.692 6.61067 126.254 6.446 125.647 6.446C125.058 6.446 124.599 6.63233 124.269 7.005C123.949 7.369 123.775 7.85867 123.749 8.474H122.605C122.64 7.50333 122.935 6.75367 123.489 6.225C124.044 5.69633 124.759 5.432 125.634 5.432C126.527 5.432 127.233 5.679 127.753 6.173C128.282 6.667 128.546 7.34733 128.546 8.214C128.546 8.93333 128.33 9.63533 127.896 10.32C127.472 10.996 126.986 11.594 126.44 12.114C125.894 12.6253 125.197 13.2233 124.347 13.908H128.819V14.896H122.566V14.051ZM130.161 7.967C130.222 7.16967 130.529 6.54567 131.084 6.095C131.639 5.64433 132.358 5.419 133.242 5.419C133.831 5.419 134.338 5.52733 134.763 5.744C135.196 5.952 135.521 6.238 135.738 6.602C135.963 6.966 136.076 7.37767 136.076 7.837C136.076 8.37433 135.92 8.838 135.608 9.228C135.305 9.618 134.906 9.86933 134.412 9.982V10.047C134.975 10.1857 135.422 10.4587 135.751 10.866C136.08 11.2733 136.245 11.8063 136.245 12.465C136.245 12.959 136.132 13.4053 135.907 13.804C135.682 14.194 135.344 14.5017 134.893 14.727C134.442 14.9523 133.901 15.065 133.268 15.065C132.349 15.065 131.595 14.8267 131.006 14.35C130.417 13.8647 130.087 13.18 130.018 12.296H131.162C131.223 12.816 131.435 13.2407 131.799 13.57C132.163 13.8993 132.648 14.064 133.255 14.064C133.862 14.064 134.321 13.908 134.633 13.596C134.954 13.2753 135.114 12.8637 135.114 12.361C135.114 11.711 134.897 11.243 134.464 10.957C134.031 10.671 133.376 10.528 132.501 10.528H132.202V9.54H132.514C133.311 9.53133 133.914 9.40133 134.321 9.15C134.728 8.89 134.932 8.49133 134.932 7.954C134.932 7.49467 134.78 7.12633 134.477 6.849C134.182 6.57167 133.758 6.433 133.203 6.433C132.666 6.433 132.232 6.57167 131.903 6.849C131.574 7.12633 131.379 7.499 131.318 7.967H130.161ZM137.66 17.418V17.301C138.553 16.3823 139.229 15.312 139.688 14.09C140.156 12.868 140.39 11.5853 140.39 10.242C140.39 8.864 140.143 7.538 139.649 6.264C139.164 4.98133 138.436 3.885 137.465 2.975V2.858H138.7C139.61 3.69867 140.308 4.769 140.793 6.069C141.287 7.36033 141.534 8.75133 141.534 10.242C141.534 11.698 141.3 13.0543 140.832 14.311C140.373 15.5677 139.727 16.6033 138.895 17.418H137.66Z" fill="#7C7C7C"/>
<path d="M31.0245 3.46352C31.1741 3.00287 31.8259 3.00287 31.9755 3.46353L33.2961 7.52786C33.363 7.73388 33.555 7.87336 33.7716 7.87336L38.0451 7.87336C38.5295 7.87336 38.7309 8.49316 38.339 8.77786L34.8817 11.2898C34.7065 11.4171 34.6331 11.6428 34.7001 11.8488L36.0206 15.9131C36.1703 16.3738 35.6431 16.7568 35.2512 16.4721L31.7939 13.9602C31.6186 13.8329 31.3814 13.8329 31.2061 13.9602L27.7488 16.4721C27.3569 16.7568 26.8297 16.3738 26.9794 15.9131L28.2999 11.8488C28.3669 11.6428 28.2935 11.4171 28.1183 11.2898L24.661 8.77786C24.2691 8.49316 24.4705 7.87336 24.9549 7.87336L29.2284 7.87336C29.445 7.87336 29.637 7.73388 29.7039 7.52786L31.0245 3.46352Z" fill="#F5C95E"/>
<path d="M48.0245 3.46352C48.1741 3.00287 48.8259 3.00287 48.9755 3.46353L50.2961 7.52786C50.363 7.73388 50.555 7.87336 50.7716 7.87336L55.0451 7.87336C55.5295 7.87336 55.7309 8.49316 55.339 8.77786L51.8817 11.2898C51.7065 11.4171 51.6331 11.6428 51.7001 11.8488L53.0206 15.9131C53.1703 16.3738 52.6431 16.7568 52.2512 16.4721L48.7939 13.9602C48.6186 13.8329 48.3814 13.8329 48.2061 13.9602L44.7488 16.4721C44.3569 16.7568 43.8297 16.3738 43.9794 15.9131L45.2999 11.8488C45.3669 11.6428 45.2935 11.4171 45.1183 11.2898L41.661 8.77786C41.2691 8.49316 41.4705 7.87336 41.9549 7.87336L46.2284 7.87336C46.445 7.87336 46.637 7.73388 46.7039 7.52786L48.0245 3.46352Z" fill="#F5C95E"/>
<path d="M65.0245 3.46352C65.1741 3.00287 65.8259 3.00287 65.9755 3.46353L67.2961 7.52786C67.363 7.73388 67.555 7.87336 67.7716 7.87336L72.0451 7.87336C72.5295 7.87336 72.7309 8.49316 72.339 8.77786L68.8817 11.2898C68.7065 11.4171 68.6331 11.6428 68.7001 11.8488L70.0206 15.9131C70.1703 16.3738 69.6431 16.7568 69.2512 16.4721L65.7939 13.9602C65.6186 13.8329 65.3814 13.8329 65.2061 13.9602L61.7488 16.4721C61.3569 16.7568 60.8297 16.3738 60.9794 15.9131L62.2999 11.8488C62.3669 11.6428 62.2935 11.4171 62.1183 11.2898L58.661 8.77786C58.2691 8.49316 58.4705 7.87336 58.9549 7.87336L63.2284 7.87336C63.445 7.87336 63.637 7.73388 63.7039 7.52786L65.0245 3.46352Z" fill="#F5C95E"/>
<path d="M82.0245 3.46352C82.1741 3.00287 82.8259 3.00287 82.9755 3.46353L84.2961 7.52786C84.363 7.73388 84.555 7.87336 84.7716 7.87336L89.0451 7.87336C89.5295 7.87336 89.7309 8.49316 89.339 8.77786L85.8817 11.2898C85.7065 11.4171 85.6331 11.6428 85.7001 11.8488L87.0206 15.9131C87.1703 16.3738 86.6431 16.7568 86.2512 16.4721L82.7939 13.9602C82.6186 13.8329 82.3814 13.8329 82.2061 13.9602L78.7488 16.4721C78.3569 16.7568 77.8297 16.3738 77.9794 15.9131L79.2999 11.8488C79.3669 11.6428 79.2935 11.4171 79.1183 11.2898L75.661 8.77786C75.2691 8.49316 75.4705 7.87336 75.9549 7.87336L80.2284 7.87336C80.445 7.87336 80.637 7.73388 80.7039 7.52786L82.0245 3.46352Z" fill="#F5C95E"/>
<path d="M99.0245 3.46352C99.1741 3.00287 99.8259 3.00287 99.9755 3.46353L101.296 7.52786C101.363 7.73388 101.555 7.87336 101.772 7.87336L106.045 7.87336C106.53 7.87336 106.731 8.49316 106.339 8.77786L102.882 11.2898C102.706 11.4171 102.633 11.6428 102.7 11.8488L104.021 15.9131C104.17 16.3738 103.643 16.7568 103.251 16.4721L99.7939 13.9602C99.6186 13.8329 99.3814 13.8329 99.2061 13.9602L95.7488 16.4721C95.3569 16.7568 94.8297 16.3738 94.9794 15.9131L96.2999 11.8488C96.3669 11.6428 96.2935 11.4171 96.1183 11.2898L92.661 8.77786C92.2691 8.49316 92.4705 7.87336 92.9549 7.87336L97.2284 7.87336C97.445 7.87336 97.637 7.73388 97.7039 7.52786L99.0245 3.46352Z" fill="#CFCFCF"/>
</svg>
