<svg width="197" height="41" viewBox="0 0 197 41" fill="none" xmlns="http://www.w3.org/2000/svg">
<circle cx="20.241" cy="20.241" r="20.241" fill="#F5F5F5"/>
<circle cx="72.2878" cy="20.241" r="20.241" fill="#F5F5F5"/>
<circle cx="124.337" cy="20.241" r="20.241" fill="#F5F5F5"/>
<circle cx="176.385" cy="20.241" r="20.241" fill="#F5F5F5"/>
<g clip-path="url(#clip0_2084_2405)">
<path d="M80.4531 13.0223C79.7201 13.5394 78.9085 13.9348 78.0496 14.1935C77.5886 13.6634 76.9759 13.2877 76.2945 13.1172C75.613 12.9467 74.8956 12.9896 74.2393 13.2401C73.583 13.4906 73.0194 13.9366 72.6249 14.5178C72.2303 15.099 72.0238 15.7874 72.0332 16.4898V17.2553C70.688 17.2901 69.3551 16.9918 68.1532 16.3868C66.9512 15.7818 65.9175 14.889 65.1442 13.7878C65.1442 13.7878 62.0824 20.6768 68.9714 23.7386C67.395 24.8087 65.5171 25.3452 63.6133 25.2695C70.5023 29.0967 78.9222 25.2695 78.9222 16.4669C78.9215 16.2536 78.901 16.041 78.861 15.8315C79.6422 15.0611 80.1935 14.0884 80.4531 13.0223Z" fill="#CCCCCC"/>
</g>
<g clip-path="url(#clip1_2084_2405)">
<path fill-rule="evenodd" clip-rule="evenodd" d="M132.557 14.5586C132.334 13.9823 131.993 13.4589 131.556 13.022C131.119 12.5851 130.596 12.2444 130.02 12.0217C129.468 11.807 128.837 11.6605 127.914 11.6183C126.991 11.576 126.693 11.5674 124.337 11.5674C121.981 11.5674 121.686 11.5776 120.761 11.6183C119.835 11.6589 119.207 11.807 118.655 12.0217C118.079 12.2442 117.555 12.5849 117.118 13.0218C116.682 13.4587 116.341 13.9822 116.118 14.5586C115.904 15.1105 115.757 15.7408 115.715 16.6641C115.673 17.5874 115.664 17.885 115.664 20.2408C115.664 22.5966 115.674 22.8922 115.715 23.8175C115.756 24.7429 115.904 25.3711 116.118 25.923C116.341 26.4993 116.682 27.0227 117.119 27.4596C117.556 27.8965 118.079 28.2372 118.655 28.46C119.207 28.6746 119.837 28.8211 120.761 28.8634C121.684 28.9056 121.982 28.9142 124.337 28.9142C126.692 28.9142 126.989 28.9041 127.914 28.8634C128.84 28.8227 129.468 28.6746 130.02 28.46C130.596 28.237 131.119 27.8962 131.556 27.4593C131.993 27.0225 132.334 26.4992 132.557 25.923C132.771 25.3711 132.918 24.7408 132.96 23.8175C133.002 22.8942 133.011 22.5966 133.011 20.2408C133.011 17.885 133.001 17.5894 132.96 16.6641C132.919 15.7388 132.771 15.1105 132.557 14.5586ZM124.337 24.695C123.456 24.695 122.595 24.4338 121.862 23.9442C121.129 23.4547 120.558 22.759 120.221 21.9449C119.884 21.1309 119.796 20.2352 119.968 19.371C120.14 18.5069 120.564 17.7131 121.187 17.0902C121.81 16.4672 122.604 16.0429 123.468 15.8711C124.332 15.6993 125.228 15.7876 126.042 16.1248C126.856 16.4621 127.552 17.0331 128.041 17.7658C128.531 18.4984 128.792 19.3597 128.792 20.2408C128.792 20.8258 128.676 21.405 128.453 21.9455C128.229 22.4859 127.901 22.977 127.487 23.3906C127.073 23.8042 126.582 24.1323 126.042 24.3561C125.501 24.5799 124.922 24.6951 124.337 24.695ZM128.966 16.6514C128.76 16.6514 128.559 16.5903 128.388 16.4759C128.216 16.3615 128.083 16.1988 128.004 16.0086C127.925 15.8183 127.905 15.6089 127.945 15.4069C127.985 15.2049 128.084 15.0194 128.23 14.8737C128.375 14.7281 128.561 14.6289 128.763 14.5888C128.965 14.5486 129.174 14.5692 129.365 14.648C129.555 14.7268 129.718 14.8603 129.832 15.0315C129.946 15.2028 130.008 15.4041 130.008 15.6101C130.008 15.8856 129.898 16.1499 129.704 16.3451C129.509 16.5403 129.245 16.6504 128.97 16.6514H128.966ZM127.227 20.2408C127.228 20.8128 127.058 21.372 126.74 21.8477C126.423 22.3233 125.971 22.694 125.442 22.913C124.914 23.132 124.333 23.1893 123.772 23.0778C123.211 22.9663 122.695 22.6909 122.291 22.2864C121.886 21.882 121.611 21.3667 121.499 20.8057C121.387 20.2447 121.445 19.6632 121.664 19.1347C121.882 18.6062 122.253 18.1546 122.729 17.8368C123.204 17.519 123.763 17.3493 124.335 17.3493C124.715 17.3491 125.092 17.4236 125.443 17.5688C125.794 17.714 126.113 17.927 126.381 18.1955C126.65 18.464 126.863 18.7829 127.009 19.1338C127.154 19.4848 127.229 19.8609 127.229 20.2408H127.227Z" fill="#CCCCCC"/>
</g>
<g clip-path="url(#clip2_2084_2405)">
<path fill-rule="evenodd" clip-rule="evenodd" d="M22.0665 21.3429H24.6016L25.0835 18.1977H22.0665V16.1568C22.0665 15.2971 22.4875 14.4573 23.8395 14.4573H25.2117V11.7798C25.2117 11.7798 23.9665 11.5674 22.7761 11.5674C20.292 11.5674 18.6671 13.0728 18.6671 15.8004V18.1977H15.9043V21.3429H18.6671V28.7843C19.7934 28.9609 20.9402 28.9609 22.0665 28.7843V21.3429Z" fill="#CCCCCC"/>
</g>
<g clip-path="url(#clip3_2084_2405)">
<path fill-rule="evenodd" clip-rule="evenodd" d="M187.536 12.862C186.595 11.8791 185.546 11.8748 185.063 11.8169C181.612 11.5674 176.434 11.5674 176.434 11.5674H176.423C176.423 11.5674 171.246 11.5674 167.794 11.8169C167.312 11.8748 166.26 11.8791 165.322 12.862C164.582 13.6106 164.342 15.3102 164.342 15.3102C164.189 16.6356 164.106 17.9683 164.096 19.3026V21.1736C164.106 22.5079 164.189 23.8406 164.342 25.166C164.342 25.166 164.582 26.8656 165.322 27.6142C166.263 28.5971 167.492 28.566 168.042 28.6687C170.015 28.8582 176.432 28.9168 176.432 28.9168C176.432 28.9168 181.616 28.9088 185.067 28.6593C185.55 28.6014 186.601 28.5971 187.539 27.6142C188.278 26.8656 188.519 25.166 188.519 25.166C188.673 23.8406 188.755 22.5079 188.766 21.1736V19.3026C188.755 17.9683 188.673 16.6356 188.519 15.3102C188.519 15.3102 188.275 13.6106 187.536 12.862ZM173.881 23.4417V16.5108L180.546 19.9882L173.881 23.4417Z" fill="#CCCCCC"/>
</g>
<defs>
<clipPath id="clip0_2084_2405">
<rect width="17.3793" height="17.3494" fill="white" transform="translate(63.6133 11.5674)"/>
</clipPath>
<clipPath id="clip1_2084_2405">
<rect width="17.3494" height="17.3494" fill="white" transform="translate(115.662 11.5674)"/>
</clipPath>
<clipPath id="clip2_2084_2405">
<rect width="9.30742" height="17.3494" fill="white" transform="translate(15.9043 11.5674)"/>
</clipPath>
<clipPath id="clip3_2084_2405">
<rect width="24.6665" height="17.3494" fill="white" transform="translate(164.096 11.5674)"/>
</clipPath>
</defs>
</svg>
